HIERARCHY
ROOT Hips
{
	OFFSET 0.000000 0.000000 0.000000 
	CHANNELS 6 Xposition Yposition Zposition Zrotation Yrotation Xrotation
	JOINT LeftUpLeg
	{
		OFFSET 1.363060 -1.794630 0.839290 
		CHANNELS 3 Zrotation Yrotation Xrotation
		JOINT LeftLeg
		{
			OFFSET 2.448110 -6.726130 0.000000 
			CHANNELS 3 Zrotation Yrotation Xrotation
			JOINT LeftFoot
			{
				OFFSET 2.562200 -7.039590 0.000000 
				CHANNELS 3 Zrotation Yrotation Xrotation
				JOINT LeftToeBase
				{
					OFFSET 0.157640 -0.433110 2.322550 
					CHANNELS 3 Zrotation Yrotation Xrotation
					End Site
					{
						OFFSET 0.000000 0.000000 0.000000 
					}
				}
			}
		}
	}
	JOINT RightUpLeg
	{
		OFFSET -1.305520 -1.794630 0.839290 
		CHANNELS 3 Zrotation Yrotation Xrotation
		JOINT RightLeg
		{
			OFFSET -2.542530 -6.985550 0.000000 
			CHANNELS 3 Zrotation Yrotation Xrotation
			JOINT RightFoot
			{
				OFFSET -2.568260 -7.056230 0.000000 
				CHANNELS 3 Zrotation Yrotation Xrotation
				JOINT RightToeBase
				{
					OFFSET -0.164730 -0.452590 2.363150 
					CHANNELS 3 Zrotation Yrotation Xrotation
					End Site
					{
						OFFSET 0.000000 0.000000 0.000000 
					}
				}
			}
		}
	}
	JOINT Spine
	{
		OFFSET 0.028270 2.035590 -0.193380 
		CHANNELS 3 Zrotation Yrotation Xrotation
		JOINT Spine1
		{
			OFFSET 0.056720 2.048850 -0.042750 
			CHANNELS 3 Zrotation Yrotation Xrotation
			JOINT Neck1
			{
				OFFSET -0.054170 1.746240 0.172020 
				CHANNELS 3 Zrotation Yrotation Xrotation
				JOINT Head
				{
					OFFSET 0.104070 1.761360 -0.123970 
					CHANNELS 3 Zrotation Yrotation Xrotation
					End Site
					{
						OFFSET 0.000000 0.000000 0.000000 
					}
				}
			}
			JOINT LeftArm
			{
				OFFSET 3.362410 1.200890 -0.311210 
				CHANNELS 3 Zrotation Yrotation Xrotation
				JOINT LeftForeArm
				{
					OFFSET 4.983000 -0.000000 -0.000000 
					CHANNELS 3 Zrotation Yrotation Xrotation
					JOINT LeftHand
					{
						OFFSET 3.483560 -0.000000 -0.000000 
						CHANNELS 3 Zrotation Yrotation Xrotation
						JOINT LeftHandIndex1
						{
							OFFSET 0.715260 -0.000000 -0.000000 
							CHANNELS 3 Zrotation Yrotation Xrotation
							End Site
							{
								OFFSET 0.000000 0.000000 0.000000 
							}
						}
					}
				}
			}
			JOINT RightArm
			{
				OFFSET -3.136600 1.374050 -0.404650 
				CHANNELS 3 Zrotation Yrotation Xrotation
				JOINT RightForeArm
				{
					OFFSET -5.241900 -0.000000 -0.000000 
					CHANNELS 3 Zrotation Yrotation Xrotation
					JOINT RightHand
					{
						OFFSET -3.444170 -0.000000 -0.000000 
						CHANNELS 3 Zrotation Yrotation Xrotation
						JOINT RightHandIndex1
						{
							OFFSET -0.622530 -0.000000 -0.000000 
							CHANNELS 3 Zrotation Yrotation Xrotation
							End Site
							{
								OFFSET 0.000000 0.000000 0.000000 
							}
						}
					}
				}
			}
		}
	}
}
MOTION
Frames: 18
Frame Time: 0.041667
-0.939833 18.163576 5.556637 -4.256312 -2.464544 0.171631 -9.723691 -6.308619 12.823680 -1.814572 -5.614704 -12.514700 -5.998982 23.051145 0.464982 0.119300 -2.226900 -6.133000 -0.107454 2.694674 -5.753882 0.863351 0.048701 1.348415 0.190411 -4.251282 13.154325 0.000000 0.000000 0.000000 2.639518 0.786230 15.568154 -3.244188 0.858041 -10.772251 3.577891 -2.456241 25.119919 0.530000 -0.687200 9.274000 -94.738234 10.098786 17.335132 24.475072 -33.889856 -7.270006 0.689604 0.441207 9.406723 -7.125000 0.000000 0.000000 94.848343 -11.540705 19.718312 -29.882398 37.987460 -8.651773 1.261682 -2.449505 16.494720 7.125000 0.000000 0.000000 
-0.940134 18.164176 5.556437 -4.245871 -2.472382 0.145056 -9.733876 -6.229637 12.813970 -1.813726 -5.613443 -12.500991 -5.982105 22.997693 0.513211 0.127200 -2.298600 -6.331600 -0.108240 2.695082 -5.752298 0.863290 0.049702 1.348684 0.190863 -4.250365 13.154835 0.000000 0.000000 0.000000 2.678440 0.783245 15.679600 -3.223697 0.864136 -10.754793 3.509305 -2.427471 25.021517 0.512000 -0.682200 9.250400 -94.778248 10.110968 17.304564 24.655665 -34.071253 -7.358259 0.686853 0.442530 9.438678 -7.125000 0.000000 0.000000 94.821292 -11.502976 19.724090 -29.894263 38.011308 -8.667945 1.286283 -2.447286 16.505256 7.125000 0.000000 0.000000 
-0.940534 18.165077 5.556036 -4.249544 -2.484334 0.130901 -9.723849 -6.163960 12.803931 -1.811743 -5.616380 -12.507003 -5.975988 22.989010 0.574974 0.140000 -2.411800 -6.645200 -0.109243 2.695440 -5.751410 0.863347 0.050369 1.348949 0.191172 -4.249672 13.155045 0.000000 0.000000 0.000000 2.640521 0.796592 15.712802 -3.220513 0.870060 -10.754559 3.541661 -2.436978 25.009185 0.516600 -0.681500 9.251000 -94.729258 10.032968 17.373661 24.451183 -33.868613 -7.259313 0.690663 0.440632 9.390411 -7.125000 0.000000 0.000000 94.850982 -11.470608 19.696368 -29.872574 38.006566 -8.667838 1.295323 -2.449603 16.549916 7.125000 0.000000 0.000000 
-0.939934 18.163776 5.555236 -4.243715 -2.468878 0.120324 -9.726576 -6.173160 12.817388 -1.810805 -5.616993 -12.513088 -5.973026 22.989649 0.614877 0.144200 -2.447100 -6.743100 -0.109361 2.695371 -5.751807 0.863421 0.050146 1.348925 0.191072 -4.249836 13.154858 0.000000 0.000000 0.000000 2.587991 0.791112 15.662411 -3.223526 0.862779 -10.769367 3.610068 -2.429378 25.001673 0.537000 -0.671200 9.244100 -94.717622 10.029711 17.371249 24.377875 -33.795370 -7.223557 0.691448 0.440169 9.367466 -7.125000 0.000000 0.000000 94.871489 -11.485092 19.700736 -29.851797 37.990354 -8.660375 1.293675 -2.451463 16.555781 7.125000 0.000000 0.000000 
-0.939233 18.163276 5.554135 -4.245245 -2.445485 0.119709 -9.734087 -6.201212 12.829361 -1.810002 -5.622494 -12.529940 -5.969685 22.989091 0.653883 0.145500 -2.458300 -6.773900 -0.108277 2.695057 -5.752506 0.863328 0.049572 1.348666 0.190763 -4.250467 13.154732 0.000000 0.000000 0.000000 2.645015 0.761056 15.645360 -3.223325 0.850086 -10.765360 3.627218 -2.388666 24.964083 0.551700 -0.653900 9.229200 -94.765464 10.010104 17.309000 24.347479 -33.766269 -7.209227 0.691037 0.440856 9.389395 -7.125000 0.000000 0.000000 94.822301 -11.508177 19.789091 -29.858400 37.988860 -8.660986 1.293803 -2.449902 16.517976 7.125000 0.000000 0.000000 
-0.938933 18.162975 5.552233 -4.262952 -2.433566 0.110330 -9.721057 -6.193765 12.827290 -1.808585 -5.627689 -12.542437 -5.963777 22.974275 0.683335 0.136700 -2.383300 -6.566300 -0.107753 2.695074 -5.752399 0.863211 0.049605 1.348623 0.190739 -4.250506 13.154873 0.000000 0.000000 0.000000 2.716462 0.742829 15.681449 -3.228645 0.844050 -10.768349 3.575069 -2.363588 24.975102 0.541200 -0.647700 9.236400 -94.796977 9.970774 17.267422 24.317653 -33.739040 -7.196553 0.691533 0.440863 9.435266 -7.125000 0.000000 0.000000 94.780158 -11.505290 19.859271 -29.876636 38.000468 -8.667828 1.281410 -2.450541 16.505787 7.125000 0.000000 0.000000 
-0.938833 18.162275 5.550232 -4.284832 -2.421640 0.093298 -9.690996 -6.164939 12.822772 -1.806241 -5.629052 -12.545063 -5.951995 22.937681 0.708767 0.130400 -2.327200 -6.410900 -0.108418 2.695432 -5.751700 0.863214 0.050186 1.348867 0.191017 -4.249911 13.155086 0.000000 0.000000 0.000000 2.706480 0.743615 15.710988 -3.241311 0.841698 -10.782965 3.488337 -2.362573 24.996434 0.510900 -0.652700 9.246400 -94.783375 9.974630 17.360528 24.428722 -33.844881 -7.237843 0.682768 0.445676 9.502105 -7.125000 0.000000 0.000000 94.787763 -11.481360 19.866604 -29.890803 38.014785 -8.673172 1.274715 -2.450966 16.508266 7.125000 0.000000 0.000000 
-0.938633 18.163276 5.550032 -4.280214 -2.408014 0.095917 -9.691734 -6.204432 12.839321 -1.805951 -5.634453 -12.560549 -5.957201 22.948716 0.662304 0.130700 -2.330600 -6.420300 -0.109385 2.695726 -5.750970 0.863288 0.050743 1.349103 0.191271 -4.249314 13.155230 0.000000 0.000000 0.000000 2.652677 0.742441 15.728674 -3.230760 0.839324 -10.770214 3.377791 -2.344729 24.979482 0.472600 -0.651600 9.241500 -94.757304 10.019613 17.493200 24.589793 -33.996175 -7.301511 0.672206 0.452488 9.512475 -7.125000 0.000000 0.000000 94.794302 -11.464356 19.886185 -29.900884 38.026108 -8.674520 1.298000 -2.445835 16.509027 7.125000 0.000000 0.000000 
-0.937932 18.163876 5.550332 -4.280833 -2.410976 0.091919 -9.702899 -6.259082 12.873219 -1.807414 -5.641293 -12.577371 -5.975079 22.993960 0.566653 0.127400 -2.301200 -6.338900 -0.109270 2.695815 -5.750714 0.863225 0.050906 1.349133 0.191347 -4.249191 13.155364 0.000000 0.000000 0.000000 2.685421 0.728852 15.762127 -3.233874 0.834449 -10.756852 3.430240 -2.335764 25.026497 0.492800 -0.642600 9.264500 -94.757579 10.063585 17.472350 24.564997 -33.977832 -7.302548 0.680000 0.451126 9.399822 -7.125000 0.000000 0.000000 94.754053 -11.456971 19.954983 -29.895720 38.016404 -8.666591 1.312488 -2.441089 16.498789 7.125000 0.000000 0.000000 
-0.937432 18.162775 5.549531 -4.313250 -2.408145 0.079238 -9.672231 -6.186512 12.853398 -1.804746 -5.641137 -12.575627 -5.960670 22.957899 0.642235 0.129300 -2.318000 -6.385200 -0.108619 2.695784 -5.751153 0.863137 0.050677 1.349075 0.191308 -4.249429 13.155335 0.000000 0.000000 0.000000 2.736232 0.727029 15.751712 -3.277061 0.830510 -10.759646 3.675075 -2.390327 25.130965 0.570600 -0.647400 9.304900 -94.741367 10.121965 17.473271 24.508991 -33.930281 -7.288578 0.687857 0.449731 9.289976 -7.125000 0.000000 0.000000 94.722838 -11.483090 20.013191 -29.905443 38.013355 -8.666223 1.308000 -2.439381 16.455880 7.125000 0.000000 0.000000 
-0.937532 18.162375 5.548330 -4.320151 -2.386951 0.084802 -9.656070 -6.132283 12.826950 -1.801229 -5.642112 -12.583380 -5.942369 22.923056 0.773197 0.133100 -2.351100 -6.477100 -0.108186 2.695484 -5.752264 0.863204 0.049982 1.348900 0.191025 -4.250050 13.154957 0.000000 0.000000 0.000000 2.697522 0.733534 15.665680 -3.291881 0.827978 -10.765125 3.763711 -2.422086 25.207182 0.595700 -0.653000 9.324900 -94.705507 10.187369 17.517404 24.510537 -33.928842 -7.287688 0.687065 0.451470 9.237773 -7.125000 0.000000 0.000000 94.736439 -11.533267 20.014382 -29.933812 38.028865 -8.676811 1.292486 -2.440850 16.438777 7.125000 0.000000 0.000000 
-0.937532 18.162975 5.547830 -4.295135 -2.375539 0.095181 -9.682155 -6.150402 12.837362 -1.800858 -5.649473 -12.605619 -5.947069 22.948232 0.790354 0.133700 -2.357100 -6.493500 -0.107415 2.695002 -5.753379 0.863241 0.049131 1.348578 0.190591 -4.250890 13.154587 0.000000 0.000000 0.000000 2.683977 0.725920 15.602815 -3.269969 0.825072 -10.767002 3.713236 -2.381458 25.197430 0.585500 -0.639100 9.317200 -94.724883 10.198539 17.454802 24.493414 -33.908942 -7.278535 0.686756 0.450944 9.252924 -7.125000 0.000000 0.000000 94.729890 -11.549120 20.015781 -29.932790 38.019885 -8.672263 1.262275 -2.445182 16.452942 7.125000 0.000000 0.000000 
-0.937532 18.162875 5.547430 -4.287159 -2.372877 0.087660 -9.688843 -6.113858 12.838999 -1.799171 -5.656389 -12.617370 -5.938018 22.916167 0.785254 0.127800 -2.304700 -6.348600 -0.107193 2.694907 -5.753341 0.863213 0.049068 1.348505 0.190548 -4.250992 13.154615 0.000000 0.000000 0.000000 2.706385 0.718557 15.618960 -3.259196 0.824657 -10.764082 3.735453 -2.371665 25.123911 0.594700 -0.635000 9.295000 -94.740365 10.182457 17.439611 24.489679 -33.905706 -7.276708 0.686621 0.450875 9.250951 -7.125000 0.000000 0.000000 94.702784 -11.530538 20.055633 -29.917958 38.006802 -8.665939 1.254656 -2.446517 16.385981 7.125000 0.000000 0.000000 
-0.937432 18.162275 5.546829 -4.301876 -2.370601 0.064066 -9.674880 -6.120184 12.869136 -1.798209 -5.662881 -12.631071 -5.941181 22.916378 0.727264 0.119900 -2.232100 -6.147700 -0.107791 2.695239 -5.752463 0.863196 0.049684 1.348722 0.190849 -4.250390 13.154884 0.000000 0.000000 0.000000 2.709548 0.715716 15.667685 -3.268580 0.823072 -10.767039 3.791628 -2.416641 25.076257 0.605200 -0.651500 9.282500 -94.708204 10.175633 17.508148 24.498614 -33.915202 -7.280633 0.686545 0.451494 9.192029 -7.125000 0.000000 0.000000 94.689566 -11.501293 20.089665 -29.906756 38.002136 -8.664026 1.262024 -2.445952 16.306954 7.125000 0.000000 0.000000 
-0.937231 18.161975 5.546829 -4.328707 -2.372648 0.044573 -9.657389 -6.186776 12.928133 -1.797963 -5.670965 -12.657623 -5.959205 22.973777 0.676742 0.123200 -2.262900 -6.232700 -0.107846 2.695378 -5.752327 0.863172 0.049818 1.348797 0.190945 -4.250249 13.154947 0.000000 0.000000 0.000000 2.719827 0.721765 15.673459 -3.293587 0.823241 -10.773493 3.845201 -2.454973 25.059460 0.616100 -0.664600 9.275100 -94.675869 10.175416 17.560512 24.496395 -33.912967 -7.278542 0.686324 0.451705 9.160821 -7.125000 0.000000 0.000000 94.696188 -11.500826 20.063825 -29.920597 38.010513 -8.667443 1.257427 -2.445346 16.295257 7.125000 0.000000 0.000000 
-0.937432 18.161374 5.546729 -4.354724 -2.372706 0.035776 -9.629049 -6.161069 12.938335 -1.794624 -5.676732 -12.676057 -5.949112 22.957725 0.755797 0.132100 -2.342700 -6.453700 -0.107688 2.695358 -5.752590 0.863167 0.049680 1.348784 0.190932 -4.250365 13.154881 0.000000 0.000000 0.000000 2.727270 0.736597 15.654899 -3.314625 0.827446 -10.774521 3.860837 -2.445096 25.057648 0.620300 -0.657700 9.270600 -94.658684 10.190566 17.658381 24.585100 -33.994139 -7.307901 0.678228 0.453925 9.222284 -7.125000 0.000000 0.000000 94.713767 -11.520451 20.005875 -29.958565 38.038212 -8.680841 1.258992 -2.442889 16.296273 7.125000 0.000000 0.000000 
-0.937932 18.160974 5.546028 -4.348980 -2.380817 0.026482 -9.630156 -6.091175 12.921863 -1.792574 -5.679558 -12.680613 -5.937234 22.933658 0.840698 0.138900 -2.402400 -6.619200 -0.107960 2.695445 -5.752207 0.863171 0.049920 1.348849 0.191028 -4.250139 13.154988 0.000000 0.000000 0.000000 2.731121 0.745206 15.678390 -3.303302 0.833983 -10.773178 3.817739 -2.390986 25.039872 0.612300 -0.635800 9.266200 -94.664571 10.186296 17.715473 24.679783 -34.080475 -7.339449 0.669876 0.453977 9.317950 -7.125000 0.000000 0.000000 94.708338 -11.510829 19.974181 -29.975984 38.053309 -8.687185 1.266264 -2.440427 16.316806 7.125000 0.000000 0.000000 
-0.938232 18.161374 5.544727 -4.329954 -2.386168 0.024414 -9.653188 -6.082178 12.912872 -1.793916 -5.678773 -12.673662 -5.936589 22.926101 0.823928 0.137700 -2.391800 -6.589700 -0.107398 2.695261 -5.752310 0.863102 0.049727 1.348688 0.190879 -4.250407 13.155014 0.000000 0.000000 0.000000 2.782519 0.734682 15.707540 -3.280889 0.835380 -10.777305 3.802047 -2.362857 25.056672 0.616500 -0.626100 9.278500 -94.695392 10.126948 17.508637 24.480940 -33.893928 -7.265424 0.685936 0.444470 9.261721 -7.125000 0.000000 0.000000 94.663571 -11.480295 19.994678 -29.955676 38.032786 -8.674271 1.266956 -2.439108 16.351894 7.125000 0.000000 0.000000 
